<svg xmlns="http://www.w3.org/2000/svg" width="468" height="120" viewBox="0 0 468 120" fill="none"><g><rect x="6" y="18" width="108" height="84" rx="24" fill="#7C3AED"/><path d="M26 44 L42 60 L26 76" fill="none" stroke="#FFFFFF" stroke-width="10" stroke-linecap="round" stroke-linejoin="round"/><path d="M51 76 H63" fill="none" stroke="#A78BFA" stroke-width="8" stroke-linecap="round" stroke-linejoin="round"/><path d="M80 30 Q82.89 44.11 97 47 Q82.89 49.89 80 64 Q77.11 49.89 63 47 Q77.11 44.11 80 30Z" fill="#FFFFFF"/></g><path d="M150.2 82.0V52.24H157.76V82.0ZM153.98 48.76Q151.94 48.76 150.53 47.44Q149.12 46.120000000000005 149.12 43.96Q149.12 41.800000000000004 150.53 40.480000000000004Q151.94 39.160000000000004 153.98 39.160000000000004Q156.07999999999998 39.160000000000004 157.45999999999998 40.480000000000004Q158.84 41.800000000000004 158.84 43.96Q158.84 46.120000000000005 157.45999999999998 47.44Q156.07999999999998 48.76 153.98 48.76Z M164.95999999999998 82.0V52.24H172.39999999999998V56.14H173.48Q174.2 54.58 176.18 53.17Q178.16 51.760000000000005 182.17999999999998 51.760000000000005Q185.66 51.760000000000005 188.26999999999998 53.35Q190.88 54.94 192.32 57.73Q193.76 60.519999999999996 193.76 64.24000000000001V82.0H186.2V64.84Q186.2 61.480000000000004 184.54999999999998 59.800000000000004Q182.89999999999998 58.120000000000005 179.83999999999997 58.120000000000005Q176.35999999999999 58.120000000000005 174.44 60.43000000000001Q172.51999999999998 62.74 172.51999999999998 66.88V82.0Z M200.71999999999997 82.0V52.24H208.15999999999997V56.14H209.23999999999998Q209.95999999999998 54.58 211.94 53.17Q213.92 51.760000000000005 217.93999999999997 51.760000000000005Q221.42 51.760000000000005 224.02999999999997 53.35Q226.64 54.94 228.07999999999998 57.73Q229.51999999999998 60.519999999999996 229.51999999999998 64.24000000000001V82.0H221.95999999999998V64.84Q221.95999999999998 61.480000000000004 220.30999999999997 59.800000000000004Q218.65999999999997 58.120000000000005 215.59999999999997 58.120000000000005Q212.11999999999998 58.120000000000005 210.2 60.43000000000001Q208.27999999999997 62.74 208.27999999999997 66.88V82.0Z M250.64 82.84Q246.19999999999996 82.84 242.65999999999997 81.03999999999999Q239.11999999999998 79.24 237.07999999999998 75.82Q235.03999999999996 72.4 235.03999999999996 67.6V66.64Q235.03999999999996 61.84 237.07999999999998 58.42Q239.11999999999998 55.0 242.65999999999997 53.2Q246.19999999999996 51.400000000000006 250.64 51.400000000000006Q255.07999999999998 51.400000000000006 258.62 53.2Q262.15999999999997 55.0 264.19999999999993 58.42Q266.23999999999995 61.84 266.23999999999995 66.64V67.6Q266.23999999999995 72.4 264.19999999999993 75.82Q262.15999999999997 79.24 258.62 81.03999999999999Q255.07999999999998 82.84 250.64 82.84ZM250.64 76.12Q254.11999999999998 76.12 256.4 73.87Q258.67999999999995 71.62 258.67999999999995 67.42V66.82Q258.67999999999995 62.620000000000005 256.42999999999995 60.370000000000005Q254.17999999999998 58.120000000000005 250.64 58.120000000000005Q247.15999999999997 58.120000000000005 244.87999999999997 60.370000000000005Q242.59999999999997 62.620000000000005 242.59999999999997 66.82V67.42Q242.59999999999997 71.62 244.87999999999997 73.87Q247.15999999999997 76.12 250.64 76.12Z M278.23999999999995 82.0 268.75999999999993 52.24H276.79999999999995L283.69999999999993 76.48H284.78L291.67999999999995 52.24H299.71999999999997L290.23999999999995 82.0Z M303.67999999999995 82.0V52.24H311.23999999999995V82.0ZM307.46 48.76Q305.42 48.76 304.01 47.44Q302.59999999999997 46.120000000000005 302.59999999999997 43.96Q302.59999999999997 41.800000000000004 304.01 40.480000000000004Q305.42 39.160000000000004 307.46 39.160000000000004Q309.56 39.160000000000004 310.94 40.480000000000004Q312.32 41.800000000000004 312.32 43.96Q312.32 46.120000000000005 310.94 47.44Q309.56 48.76 307.46 48.76Z M327.67999999999995 82.84Q324.49999999999994 82.84 321.97999999999996 81.73Q319.46 80.62 317.98999999999995 78.49000000000001Q316.5199999999999 76.36 316.5199999999999 73.3Q316.5199999999999 70.24 317.98999999999995 68.16999999999999Q319.46 66.1 322.06999999999994 65.05Q324.67999999999995 64.0 328.03999999999996 64.0H336.19999999999993V62.32Q336.19999999999993 60.22 334.87999999999994 58.87Q333.55999999999995 57.519999999999996 330.67999999999995 57.519999999999996Q327.85999999999996 57.519999999999996 326.47999999999996 58.81Q325.09999999999997 60.1 324.67999999999995 62.14L317.71999999999997 59.8Q318.43999999999994 57.519999999999996 320.03 55.629999999999995Q321.61999999999995 53.74 324.28999999999996 52.57000000000001Q326.9599999999999 51.400000000000006 330.79999999999995 51.400000000000006Q336.67999999999995 51.400000000000006 340.0999999999999 54.34Q343.5199999999999 57.28 343.5199999999999 62.86V73.96000000000001Q343.5199999999999 75.76 345.19999999999993 75.76H347.59999999999997V82.0H342.55999999999995Q340.34 82.0 338.9 80.92Q337.4599999999999 79.84 337.4599999999999 78.04V77.98H336.31999999999994Q336.0799999999999 78.7 335.23999999999995 79.87Q334.4 81.04 332.59999999999997 81.94Q330.79999999999995 82.84 327.67999999999995 82.84ZM328.99999999999994 76.72Q332.17999999999995 76.72 334.18999999999994 74.95Q336.19999999999993 73.18 336.19999999999993 70.24V69.64H328.5799999999999Q326.47999999999996 69.64 325.28 70.53999999999999Q324.0799999999999 71.44 324.0799999999999 73.06Q324.0799999999999 74.68 325.3399999999999 75.7Q326.59999999999997 76.72 328.99999999999994 76.72Z" fill="#FFFFFF"/><path d="M350.49797363281243 82.0V40.0H356.67207031249995V82.0Z M373.7929809570312 82.84Q370.65497802734376 82.84 368.1454772949219 81.75099853515624Q365.6359765625 80.6619970703125 364.1764758300781 78.56349487304686Q362.71697509765625 76.46499267578125 362.71697509765625 73.46798828125Q362.71697509765625 70.4499853515625 364.1764758300781 68.43248168945313Q365.6359765625 66.41497802734375 368.1934802246094 65.39647583007812Q370.75098388671876 64.3779736328125 373.98499267578126 64.3779736328125H383.0269311523437V62.46698974609375Q383.0269311523437 59.86302490234375 381.4549487304687 58.292540283203124Q379.8829663085937 56.7220556640625 376.6459912109375 56.7220556640625Q373.4690161132812 56.7220556640625 371.7845373535156 58.222041015624995Q370.10005859374996 59.722026367187496 369.5540673828125 62.16099853515625L363.811982421875 60.28296630859375Q364.531982421875 57.8979736328125 366.1114831542969 55.94497802734375Q367.69098388671875 53.991982421875 370.32948608398436 52.800983886718754Q372.96798828125 51.6099853515625 376.723994140625 51.6099853515625Q382.4780029296875 51.6099853515625 385.7615124511718 54.52898681640625Q389.04502197265623 57.447988281250005 389.04502197265623 62.88099853515625V75.051923828125Q389.04502197265623 76.851923828125 390.72502197265624 76.851923828125H393.27201171875V82.0H388.651982421875Q386.5579736328125 82.0 385.24396484374995 80.90950073242188Q383.92995605468747 79.81900146484375 383.92995605468747 77.97700439453125V77.79101318359375H382.97894287109375Q382.54995605468747 78.72099853515626 381.5734655761719 79.92249633789064Q380.59697509765624 81.123994140625 378.7339794921875 81.9819970703125Q376.8709838867187 82.84 373.7929809570312 82.84ZM374.7350073242187 77.7279296875Q378.4189721679687 77.7279296875 380.72295166015624 75.60095458984375Q383.0269311523437 73.4739794921875 383.0269311523437 69.7780322265625V69.13603515625H374.35700439453126Q371.900029296875 69.13603515625 370.39555053710933 70.19352416992189Q368.8910717773437 71.25101318359376 368.8910717773437 73.29098388671875Q368.8910717773437 75.33095458984376 370.4555505371094 76.52944213867187Q372.020029296875 77.7279296875 374.7350073242187 77.7279296875Z M415.160029296875 82.84Q410.86704833984373 82.84 408.5285607910156 81.28151245117188Q406.1900732421875 79.72302490234375 405.0860791015625 77.79104248046875H404.1320703125V82.0H398.0779736328125V40.0H404.2520703125V56.4579443359375H405.2060791015625Q405.908076171875 55.23095458984375 407.1230688476562 54.13446411132813Q408.3380615234375 53.0379736328125 410.31505126953124 52.323979492187505Q412.292041015625 51.6099853515625 415.160029296875 51.6099853515625Q418.8860205078125 51.6099853515625 421.988017578125 53.40098388671875Q425.0900146484375 55.191982421875 426.9500146484375 58.60148315429687Q428.8100146484375 62.01098388671875 428.8100146484375 66.78698974609375V67.66299560546875Q428.8100146484375 72.43900146484376 426.93951538085935 75.84850219726563Q425.06901611328124 79.2580029296875 421.96701904296873 81.04900146484376Q418.8650219726562 82.84 415.160029296875 82.84ZM413.383994140625 77.41591796875Q417.38895751953123 77.41591796875 419.9914392089844 74.84044067382811Q422.5939208984375 72.26496337890624 422.5939208984375 67.503994140625V66.9459912109375Q422.5939208984375 62.18502197265625 420.01093994140626 59.60954467773438Q417.427958984375 57.0340673828125 413.383994140625 57.0340673828125Q409.400029296875 57.0340673828125 406.78704833984375 59.60954467773438Q404.1740673828125 62.18502197265625 404.1740673828125 66.9459912109375V67.503994140625Q404.1740673828125 72.26496337890624 406.78704833984375 74.84044067382811Q409.400029296875 77.41591796875 413.383994140625 77.41591796875Z M447.42499267578125 82.84Q441.7939794921875 82.84 438.06348022460935 80.32Q434.3329809570312 77.8 433.531982421875 72.72102783203125L439.2950659179687 71.32Q439.736064453125 73.7979736328125 440.894052734375 75.21845825195312Q442.052041015625 76.63894287109375 443.7530249023437 77.24343627929687Q445.45400878906247 77.8479296875 447.42499267578125 77.8479296875Q450.4009692382812 77.8479296875 451.9864465332031 76.72894287109375Q453.57192382812497 75.6099560546875 453.57192382812497 73.8099853515625Q453.57192382812497 71.98901611328125 452.06744506835935 71.14452270507812Q450.56296630859373 70.300029296875 447.64998535156246 69.7780322265625L445.59201171875 69.41503662109375Q442.5980029296875 68.85703369140626 440.14399414062495 67.8280322265625Q437.6899853515625 66.79903076171875 436.2244787597656 65.00202636718751Q434.75897216796875 63.205021972656255 434.75897216796875 60.41201171875Q434.75897216796875 56.20299560546875 437.90447875976565 53.90649047851562Q441.0499853515625 51.6099853515625 446.203994140625 51.6099853515625Q451.183994140625 51.6099853515625 454.3895007324219 53.840484619140625Q457.5950073242187 56.07098388671875 458.53101318359376 59.901967773437505L452.791923828125 61.558002929687504Q452.26992675781247 58.8580322265625 450.5269458007812 57.7300439453125Q448.78396484374997 56.602055664062505 446.203994140625 56.602055664062505Q443.64502197265625 56.602055664062505 442.21104248046873 57.53054321289063Q440.7770629882812 58.45903076171875 440.7770629882812 60.1780029296875Q440.7770629882812 61.9539794921875 442.1870483398437 62.79096923828125Q443.59703369140624 63.627958984375 446.01500732421874 64.05095458984376L448.07298095703123 64.41395019531251Q451.30698974609373 64.971953125 453.9214978027344 65.94095458984376Q456.536005859375 66.9099560546875 458.0630102539062 68.68745971679687Q459.5900146484375 70.46496337890625 459.5900146484375 73.45897216796875Q459.5900146484375 77.9499853515625 456.2945080566406 80.39499267578125Q452.99900146484373 82.84 447.42499267578125 82.84Z" fill="#A78BFA"/></svg>